<svg xmlns="http://www.w3.org/2000/svg" xmlns:xlink="http://www.w3.org/1999/xlink" fill="none" version="1.1" width="78" height="40" viewBox="0 0 78 40"><g><g><path d="M8.87195,4.36808C8,6.07937,8,8.31958,8,14.5113L8,13L0,20L8,27L8,25.4887C8,31.6804,8,33.9206,8.87195,35.6319C9.63894,37.1372,10.8628,38.3611,12.3681,39.1281C14.0794,40,16.3196,40,22.5113,40L63.4887,40C69.6804,40,71.9206,40,73.6319,39.1281C75.1372,38.3611,76.3611,37.1372,77.1281,35.6319C78,33.9206,78,31.6804,78,25.4887L78,14.5113C78,8.31958,78,6.07937,77.1281,4.36808C76.3611,2.86278,75.1372,1.63894,73.6319,0.871948C71.9206,0,69.6804,0,63.4887,0L22.5113,0C16.3196,0,14.0794,0,12.3681,0.871948C10.8628,1.63893,9.63894,2.86278,8.87195,4.36808Z" fill-rule="evenodd" fill="#F2F4F7" fill-opacity="1"/></g><g><path d="M34,20Q34,20.14738,33.98555,20.29405Q33.97111,20.44072,33.94235,20.58527Q33.9136,20.72982,33.87082,20.87085Q33.82804,21.01189,33.77164,21.148049999999998Q33.71524,21.28421,33.64576,21.414189999999998Q33.57629,21.54417,33.49441,21.666710000000002Q33.412530000000004,21.78925,33.31903,21.90318Q33.22553,22.01711,33.12132,22.12132Q33.01711,22.22553,32.90318,22.319029999999998Q32.78925,22.41253,32.66671,22.494410000000002Q32.54417,22.57629,32.41419,22.64576Q32.28421,22.71524,32.14805,22.771639999999998Q32.01189,22.82804,31.87085,22.870820000000002Q31.72982,22.9136,31.58527,22.94236Q31.44072,22.97111,31.29405,22.98555Q31.14738,23,31,23Q30.85262,23,30.70595,22.98555Q30.55928,22.97111,30.41473,22.94235Q30.27018,22.9136,30.12915,22.870820000000002Q29.98811,22.82804,29.85195,22.771639999999998Q29.71579,22.71524,29.58581,22.64576Q29.45583,22.57629,29.33329,22.494410000000002Q29.21075,22.41253,29.09682,22.319029999999998Q28.982893,22.22553,28.87868,22.12132Q28.774466,22.01711,28.680969,21.90318Q28.587471,21.78925,28.505591,21.666710000000002Q28.423711,21.54417,28.354236,21.414189999999998Q28.284761,21.28421,28.228361,21.148049999999998Q28.171961,21.01189,28.129179,20.87085Q28.0863967,20.72982,28.0576442,20.58527Q28.0288916,20.44072,28.0144458,20.29405Q28,20.14738,28,20Q28,19.85262,28.0144458,19.70595Q28.0288916,19.55928,28.0576442,19.41473Q28.0863967,19.27018,28.129179,19.12915Q28.171961,18.98811,28.228361,18.85195Q28.284761,18.71579,28.354236,18.58581Q28.423711,18.45583,28.505591,18.33329Q28.587471,18.21075,28.680969,18.09682Q28.774466,17.982893,28.87868,17.87868Q28.982893,17.774466,29.09682,17.680969Q29.21075,17.587471,29.33329,17.505591Q29.45583,17.423711,29.58581,17.354236Q29.71579,17.284761,29.85195,17.228361Q29.98811,17.171961,30.12915,17.129179Q30.27018,17.0863967,30.41473,17.0576442Q30.55928,17.0288916,30.70595,17.0144458Q30.85262,17,31,17Q31.14738,17,31.29405,17.0144458Q31.44072,17.0288916,31.58527,17.0576442Q31.72982,17.0863967,31.87085,17.129179Q32.01189,17.171961,32.14805,17.228361Q32.28421,17.284761,32.41419,17.354236Q32.54417,17.423711,32.66671,17.505591Q32.78925,17.587471,32.90318,17.680969Q33.01711,17.774466,33.12132,17.87868Q33.22553,17.982893,33.31903,18.09682Q33.412530000000004,18.21075,33.49441,18.33329Q33.57629,18.45583,33.64576,18.58581Q33.71524,18.71579,33.77164,18.85195Q33.82804,18.98811,33.87082,19.12915Q33.9136,19.27018,33.94236,19.41473Q33.97111,19.55928,33.98555,19.70595Q34,19.85262,34,20ZM46,20Q46,20.14738,45.985600000000005,20.29405Q45.9711,20.44072,45.9424,20.58527Q45.9136,20.72982,45.8708,20.87085Q45.828,21.01189,45.7716,21.148049999999998Q45.715199999999996,21.28421,45.6458,21.414189999999998Q45.5763,21.54417,45.4944,21.666710000000002Q45.4125,21.78925,45.319,21.90318Q45.2255,22.01711,45.121300000000005,22.12132Q45.0171,22.22553,44.9032,22.319029999999998Q44.7893,22.41253,44.6667,22.494410000000002Q44.544200000000004,22.57629,44.4142,22.64576Q44.2842,22.71524,44.147999999999996,22.771639999999998Q44.0119,22.82804,43.8709,22.870820000000002Q43.7298,22.9136,43.585300000000004,22.94236Q43.4407,22.97111,43.2941,22.98555Q43.1474,23,43,23Q42.8526,23,42.7059,22.98555Q42.5593,22.97111,42.414699999999996,22.94235Q42.2702,22.9136,42.1291,22.870820000000002Q41.9881,22.82804,41.8519,22.771639999999998Q41.7158,22.71524,41.5858,22.64576Q41.455799999999996,22.57629,41.3333,22.494410000000002Q41.2107,22.41253,41.0968,22.319029999999998Q40.9829,22.22553,40.8787,22.12132Q40.7745,22.01711,40.681,21.90318Q40.5875,21.78925,40.5056,21.666710000000002Q40.4237,21.54417,40.3542,21.414189999999998Q40.284800000000004,21.28421,40.2284,21.148049999999998Q40.172,21.01189,40.1292,20.87085Q40.0864,20.72982,40.0576,20.58527Q40.0289,20.44072,40.0144,20.29405Q40,20.14738,40,20Q40,19.85262,40.0144,19.70595Q40.0289,19.55928,40.0576,19.41473Q40.0864,19.27018,40.1292,19.12915Q40.172,18.98811,40.2284,18.85195Q40.284800000000004,18.71579,40.3542,18.58581Q40.4237,18.45583,40.5056,18.33329Q40.5875,18.21075,40.681,18.09682Q40.7745,17.982893,40.8787,17.87868Q40.9829,17.774466,41.0968,17.680969Q41.2107,17.587471,41.3333,17.505591Q41.455799999999996,17.423711,41.5858,17.354236Q41.7158,17.284761,41.8519,17.228361Q41.9881,17.171961,42.1291,17.129179Q42.2702,17.0863967,42.414699999999996,17.0576442Q42.5593,17.0288916,42.7059,17.0144458Q42.8526,17,43,17Q43.1474,17,43.2941,17.0144458Q43.4407,17.0288916,43.585300000000004,17.0576442Q43.7298,17.0863967,43.8709,17.129179Q44.0119,17.171961,44.147999999999996,17.228361Q44.2842,17.284761,44.4142,17.354236Q44.544200000000004,17.423711,44.6667,17.505591Q44.7893,17.587471,44.9032,17.680969Q45.0171,17.774466,45.121300000000005,17.87868Q45.2255,17.982893,45.319,18.09682Q45.4125,18.21075,45.4944,18.33329Q45.5763,18.45583,45.6458,18.58581Q45.715199999999996,18.71579,45.7716,18.85195Q45.828,18.98811,45.8708,19.12915Q45.9136,19.27018,45.9424,19.41473Q45.9711,19.55928,45.985600000000005,19.70595Q46,19.85262,46,20ZM58,20Q58,20.14738,57.985600000000005,20.29405Q57.9711,20.44072,57.9424,20.58527Q57.9136,20.72982,57.8708,20.87085Q57.828,21.01189,57.7716,21.148049999999998Q57.715199999999996,21.28421,57.6458,21.414189999999998Q57.5763,21.54417,57.4944,21.666710000000002Q57.4125,21.78925,57.319,21.90318Q57.2255,22.01711,57.121300000000005,22.12132Q57.0171,22.22553,56.9032,22.319029999999998Q56.7893,22.41253,56.6667,22.494410000000002Q56.544200000000004,22.57629,56.4142,22.64576Q56.2842,22.71524,56.147999999999996,22.771639999999998Q56.0119,22.82804,55.8709,22.870820000000002Q55.7298,22.9136,55.585300000000004,22.94236Q55.4407,22.97111,55.2941,22.98555Q55.147400000000005,23,55,23Q54.852599999999995,23,54.7059,22.98555Q54.5593,22.97111,54.414699999999996,22.94235Q54.2702,22.9136,54.1291,22.870820000000002Q53.9881,22.82804,53.8519,22.771639999999998Q53.7158,22.71524,53.5858,22.64576Q53.455799999999996,22.57629,53.3333,22.494410000000002Q53.2107,22.41253,53.0968,22.319029999999998Q52.9829,22.22553,52.878699999999995,22.12132Q52.7745,22.01711,52.681,21.90318Q52.5875,21.78925,52.5056,21.666710000000002Q52.4237,21.54417,52.3542,21.414189999999998Q52.284800000000004,21.28421,52.2284,21.148049999999998Q52.172,21.01189,52.1292,20.87085Q52.0864,20.72982,52.0576,20.58527Q52.0289,20.44072,52.014399999999995,20.29405Q52,20.14738,52,20Q52,19.85262,52.014399999999995,19.70595Q52.0289,19.55928,52.0576,19.41473Q52.0864,19.27018,52.1292,19.12915Q52.172,18.98811,52.2284,18.85195Q52.284800000000004,18.71579,52.3542,18.58581Q52.4237,18.45583,52.5056,18.33329Q52.5875,18.21075,52.681,18.09682Q52.7745,17.982893,52.878699999999995,17.87868Q52.9829,17.774466,53.0968,17.680969Q53.2107,17.587471,53.3333,17.505591Q53.455799999999996,17.423711,53.5858,17.354236Q53.7158,17.284761,53.8519,17.228361Q53.9881,17.171961,54.1291,17.129179Q54.2702,17.0863967,54.414699999999996,17.0576442Q54.5593,17.0288916,54.7059,17.0144458Q54.852599999999995,17,55,17Q55.147400000000005,17,55.2941,17.0144458Q55.4407,17.0288916,55.585300000000004,17.0576442Q55.7298,17.0863967,55.8709,17.129179Q56.0119,17.171961,56.147999999999996,17.228361Q56.2842,17.284761,56.4142,17.354236Q56.544200000000004,17.423711,56.6667,17.505591Q56.7893,17.587471,56.9032,17.680969Q57.0171,17.774466,57.121300000000005,17.87868Q57.2255,17.982893,57.319,18.09682Q57.4125,18.21075,57.4944,18.33329Q57.5763,18.45583,57.6458,18.58581Q57.715199999999996,18.71579,57.7716,18.85195Q57.828,18.98811,57.8708,19.12915Q57.9136,19.27018,57.9424,19.41473Q57.9711,19.55928,57.985600000000005,19.70595Q58,19.85262,58,20Z" fill="#FAA600" fill-opacity="1"/></g></g></svg>