<svg xmlns="http://www.w3.org/2000/svg" xmlns:xlink="http://www.w3.org/1999/xlink" fill="none" version="1.1" width="11.2001953125" height="14" viewBox="0 0 11.2001953125 14"><g><g><path d="M10.56,0C10.9135,0,11.2,0.286538,11.2,0.64L11.2,9.6688C11.2,9.88096,11.1156,10.0844,10.9656,10.2344L7.4344,13.7656C7.28441,13.9156,7.08096,14,6.8688,14L0.64,14C0.470261,14,0.307475,13.9326,0.187452,13.8125C0.0674284,13.6925,0,13.5297,0,13.36L0,0.64C0,0.286538,0.286538,0,0.64,0L10.56,0ZM9.88,1L1.32,1C1.14327,1,1,1.14327,1,1.32L1,12.68C1,12.856,1.144,13,1.32,13L6.5,13L6.5,10.12C6.5,9.6976,6.82,9.3496,7.2304,9.3048L7.32,9.3L10.2,9.3L10.2,1.32C10.2,1.14327,10.0567,1,9.88,1ZM8.9018,3.76729C8.8825,3.50657,8.66561,3.30473,8.40418,3.3042L2.80418,3.3042L2.73058,3.3098C2.47207,3.34881,2.28726,3.58039,2.30656,3.84111C2.32586,4.10183,2.54274,4.30367,2.80418,4.3042L8.40418,4.3042L8.47778,4.2986C8.73628,4.25958,8.92109,4.02801,8.9018,3.76729ZM8.9018,6.76729C8.8825,6.50657,8.66561,6.30473,8.40418,6.3042L2.80418,6.3042L2.73058,6.3098C2.47207,6.34881,2.28726,6.58039,2.30656,6.84111C2.32586,7.10183,2.54274,7.30367,2.80418,7.3042L8.40418,7.3042L8.47778,7.2986C8.73628,7.25958,8.92109,7.02801,8.9018,6.76729ZM5.7018,9.76729C5.6825,9.50657,5.46561,9.30473,5.20418,9.3042L2.80418,9.3042L2.73058,9.3098C2.47207,9.34881,2.28726,9.58039,2.30656,9.84111C2.32586,10.1018,2.54274,10.3037,2.80418,10.3042L5.20418,10.3042L5.27778,10.2986C5.53628,10.2596,5.72109,10.028,5.7018,9.76729ZM7.5,10.2998L9.4856,10.2998L7.5,12.2854L7.5,10.2998Z" fill-rule="evenodd" fill="#FAA600" fill-opacity="1"/></g></g></svg>