<svg xmlns="http://www.w3.org/2000/svg" xmlns:xlink="http://www.w3.org/1999/xlink" fill="none" version="1.1" width="68" height="68" viewBox="0 0 68 68"><defs><filter id="master_svg0_0_20016" filterUnits="objectBoundingBox" color-interpolation-filters="sRGB" x="-0.75" y="-0.6875" width="2.5" height="2.5"><feFlood flood-opacity="0" result="BackgroundImageFix"/><feColorMatrix in="SourceAlpha" type="matrix" values="0 0 0 0 0 0 0 0 0 0 0 0 0 0 0 0 0 0 127 0"/><feOffset dy="2" dx="0"/><feGaussianBlur stdDeviation="6"/><feColorMatrix type="matrix" values="0 0 0 0 0 0 0 0 0 0 0 0 0 0 0 0 0 0 0.10140030831098557 0"/><feBlend mode="normal" in2="BackgroundImageFix" result="effect1_dropShadow"/><feBlend mode="normal" in="SourceGraphic" in2="effect1_dropShadow" result="shape"/></filter><linearGradient x1="0.5" y1="0" x2="0.5" y2="1" id="master_svg1_0_1602"><stop offset="0%" stop-color="#FDD200" stop-opacity="1"/><stop offset="100%" stop-color="#FAA600" stop-opacity="1"/></linearGradient></defs><g filter="url(#master_svg0_0_20016)"><g><path d="M18 32C18.000000000000004 23.1634440027073 25.16344400270731 16 34 16L34 16C42.83655599729269 16 50 23.16344400270731 50 32L50 32C50 40.83655599729269 42.83655599729269 48 34 48L34 48C25.16344400270731 48 18 40.83655599729269 18 32Z" fill="#FFFFFF" fill-opacity="1"/></g><g><path d="M32.65179350250244,32.93703541015625L35.67671350250244,29.68474541015625C35.94111350250244,29.40040541015625,36.07611350250244,29.25484541015625,36.06791350250244,29.20875541015625C36.06141350250244,29.172125410156248,36.03391350250244,29.14013541015625,35.99871350250244,29.12821541015625C35.954313502502444,29.11322541015625,35.79021350250244,29.22480541015625,35.46941350250244,29.44358541015625L31.356853502502442,32.24816541015625C30.85443350250244,32.59079541015625,30.59901350250244,32.76410541015625,30.32715350250244,32.82700541015625C30.09018350250244,32.88184541015625,29.84299350250244,32.878245410156254,29.60772350250244,32.81653541015625C29.337813502502442,32.745745410156246,29.08754350250244,32.565075410156254,28.595313502502442,32.20796541015625L26.75543350250244,30.87316541015625C25.876051502502442,30.235175410156252,25.42300250250244,29.90274541015625,25.33815090250244,29.55999541015625C25.267628702502442,29.27513541015625,25.326268102502443,28.96733541015625,25.49658950250244,28.72834541015625C25.70151750250244,28.44080541015625,26.245062502502442,28.29823541015625,27.29742350250244,28.02826541015625L39.74641350250244,24.83471741015625C40.786713502502444,24.56784961015625,41.32541350250244,24.43275191015625,41.64241350250244,24.58429941015625C41.90611350250244,24.71033141015625,42.105913502502446,24.94964541015625,42.18281350250244,25.23153041015625C42.27531350250244,25.57048541015625,42.04621350250244,26.07646541015625,41.597913502502436,27.05240541015625L37.384113502502444,36.22569541015625C37.10471350250244,36.83389541015625,36.95981350250244,37.14549541015625,36.73551350250244,37.29879541015625C36.54411350250244,37.42959541015625,36.31151350250244,37.49039541015625,36.08051350250244,37.47009541015625C35.80991350250244,37.44629541015625,35.53091350250244,37.24559541015625,34.98954350250244,36.85209541015625L32.88274350250244,35.32099541015625C32.37769350250244,34.95399541015625,32.119653502502445,34.76469541015625,32.01246350250244,34.52849541015625C31.920683502502442,34.32632541015625,31.89855350250244,34.09788541015625,31.94982350250244,33.88183541015625C32.00968350250244,33.62952541015625,32.22659350250244,33.394205410156246,32.65179350250244,32.93703541015625ZM28.572783502502443,37.36529541015625L28.572783502502443,35.727995410156254C28.572783502502443,35.21879541015625,28.57423350250244,34.955495410156246,28.68227350250244,34.82219541015625C28.772383502502443,34.71099541015625,28.90814350250244,34.64219541015625,29.05109350250244,34.63539541015625C29.22249350250244,34.62719541015625,29.435583502502443,34.78179541015625,29.846143502502443,35.08309541015625L30.75649350250244,35.751295410156246C31.00820350250244,35.93599541015625,31.136803502502442,36.03129541015625,31.18984350250244,36.14959541015625C31.23525350250244,36.25099541015625,31.24577350250244,36.36519541015625,31.21961350250244,36.47319541015625C31.189053502502443,36.59919541015625,31.080003502502443,36.71629541015625,30.866233502502443,36.94389541015625L29.95588350250244,37.91309541015625C29.52469350250244,38.37209541015625,29.30032350250244,38.60849541015625,29.11372350250244,38.62249541015625C28.959813502502442,38.63409541015625,28.80516350250244,38.572795410156246,28.700883502502442,38.45899541015625C28.57444350250244,38.321095410156246,28.572783502502443,37.99509541015625,28.572783502502443,37.36529541015625Z" fill-rule="evenodd" fill="url(#master_svg1_0_1602)" fill-opacity="1"/></g></g></svg>