<svg xmlns="http://www.w3.org/2000/svg" xmlns:xlink="http://www.w3.org/1999/xlink" fill="none" version="1.1" width="14" height="14" viewBox="0 0 14 14"><g><g></g><g><path d="M3.4,5.81391Q3.4,4.615874,3.57439,4.273615Q3.810406,3.810406,4.273615,3.57439Q4.615874,3.4,5.81391,3.4L5.81391,3.4L10.18609,3.4Q11.384129999999999,3.4,11.72639,3.57439Q12.18959,3.810407,12.42561,4.273615Q12.6,4.615875,12.6,5.81391L12.6,10.18609Q12.6,11.384129999999999,12.42561,11.72639Q12.18959,12.18959,11.72639,12.42561Q11.384129999999999,12.6,10.18609,12.6L5.81391,12.6Q4.615875,12.6,4.273615,12.42561Q3.810407,12.18959,3.57439,11.72639Q3.4,11.384129999999999,3.4,10.18609L3.4,5.81391ZM4.6,5.81391L4.6,10.18609Q4.6,11.096029999999999,4.643597,11.1816Q4.702602,11.2974,4.818404,11.3564Q4.903969,11.4,5.81391,11.4L10.18609,11.4Q11.096029999999999,11.4,11.1816,11.3564Q11.2974,11.2974,11.3564,11.1816Q11.4,11.096029999999999,11.4,10.18609L11.4,5.81391Q11.4,4.903969,11.3564,4.818404Q11.2974,4.702602,11.1816,4.643597Q11.096029999999999,4.6,10.18609,4.6L5.81391,4.6L5.81391,4.6Q4.903969,4.6,4.818404,4.643597Q4.702602,4.702601,4.643597,4.818404Q4.6,4.903969,4.6,5.81391Z" fill="#FAA600" fill-opacity="1"/></g><g><path d="M3.6,2.6L9,2.6Q9.05505,2.6,9.10918,2.589983Q9.16048,2.58049,9.20937,2.562283Q9.25827,2.544076,9.30329,2.517704Q9.3483,2.491331,9.38809,2.4575839999999998Q9.42788,2.423836,9.46125,2.383727Q9.494620000000001,2.343618,9.52056,2.298352Q9.54651,2.253086,9.564250000000001,2.204021Q9.581990000000001,2.154956,9.59099,2.103565Q9.6,2.0521739,9.6,2Q9.6,1.9409052,9.588470000000001,1.882946Q9.57694,1.824986,9.55433,1.77039Q9.53171,1.7157930000000001,9.49888,1.666658Q9.46605,1.6175220000000001,9.42426,1.575736Q9.382480000000001,1.53395,9.33334,1.501118Q9.28421,1.4682870000000001,9.229610000000001,1.445672Q9.17501,1.4230580000000002,9.117049999999999,1.411529Q9.059090000000001,1.4,9,1.4L3.6,1.4Q2.6095129999999997,1.4,2.264323,1.578929Q1.812915,1.812915,1.578929,2.264323Q1.4,2.6095129999999997,1.4,3.6L1.4,9Q1.4,9.05505,1.4100169999999999,9.10918Q1.41951,9.16048,1.4377170000000001,9.20937Q1.455924,9.25827,1.4822959999999998,9.30329Q1.508669,9.3483,1.542416,9.38809Q1.576164,9.42788,1.616273,9.46125Q1.656382,9.494620000000001,1.701648,9.52056Q1.746914,9.54651,1.795979,9.564250000000001Q1.845044,9.581990000000001,1.896435,9.59099Q1.9478261,9.6,2,9.6Q2.0590948,9.6,2.117054,9.588470000000001Q2.175014,9.57694,2.22961,9.55433Q2.284207,9.53171,2.333342,9.49888Q2.382478,9.46605,2.424264,9.42426Q2.46605,9.382480000000001,2.498882,9.33334Q2.531713,9.28421,2.554328,9.229610000000001Q2.576942,9.17501,2.588471,9.117049999999999Q2.6,9.059090000000001,2.6,9L2.6,3.6Q2.6,2.90204,2.644308,2.8165620000000002Q2.7031140000000002,2.703113,2.8165620000000002,2.644308Q2.90204,2.6,3.6,2.6Z" fill-rule="evenodd" fill="#FAA600" fill-opacity="1"/></g></g></svg>